# This file is brought to you by Roblox Corporation
# Generated by Roblox Studio

mtllib Vault Magma.mtl

g VaultMagma1

v -536.488 4018.56 -2873.08 
v -542.55 4018.56 -2873.08 
v -536.488 4018.56 -2866.04 
v -542.55 4018.56 -2866.04 
v -536.501 4017.69 -2872.12 
v -536.498 4017.89 -2866.67 
v -535.245 4017.69 -2872.12 
v -542.63 4007.16 -2873.17 
v -542.63 4007.16 -2865.95 
v -542.435 4011.14 -2866.18 
v -542.435 4011.14 -2872.95 
v -542.55 4018.56 -2866.04 
v -542.55 4018.56 -2873.08 
v -535.627 4016.27 -2868.73 
v -535.476 4016.47 -2869.34 
v -535.918 4016.48 -2869.44 
v -536.069 4016.28 -2868.84 
v -536.603 4011.14 -2866.18 
v -542.63 4007.16 -2865.95 
v -536.408 4007.16 -2865.95 
v -542.435 4011.14 -2866.18 
v -536.488 4018.56 -2866.04 
v -542.55 4018.56 -2866.04 
v -535.353 4016.19 -2869.9 
v -535.918 4016.48 -2869.44 
v -535.476 4016.47 -2869.34 
v -535.795 4016.2 -2870 
v -536.408 4007.16 -2873.17 
v -536.408 4007.16 -2865.95 
v -542.63 4007.16 -2865.95 
v -542.63 4007.16 -2873.17 
v -536.329 4007.5 -2872.76 
v -535.072 4007.22 -2871.09 
v -535.565 4007.33 -2870.82 
v -534.781 4007.16 -2871.95 
v -536.204 4007.47 -2870.85 
v -534.97 4007.2 -2872.48 
v -535.514 4007.32 -2872.87 
v -536.788 4007.6 -2871.49 
v -536.867 4007.61 -2872.03 
v -536.446 4007.94 -2866.71 
v -536.445 4007.92 -2872.39 
v -535.189 4007.92 -2872.39 
v -534.97 4007.2 -2872.48 
v -535.427 4007.71 -2872.87 
v -534.883 4007.59 -2872.48 
v -535.514 4007.32 -2872.87 
v -534.883 4007.59 -2872.48 
v -534.693 4007.55 -2871.95 
v -534.97 4007.2 -2872.48 
v -534.781 4007.16 -2871.95 
v -535.627 4016.27 -2868.73 
v -536.069 4016.28 -2868.84 
v -535.685 4015.64 -2868.58 
v -536.127 4015.65 -2868.68 
v -536.603 4011.14 -2872.95 
v -536.408 4007.16 -2873.17 
v -542.435 4011.14 -2872.95 
v -542.63 4007.16 -2873.17 
v -542.55 4018.56 -2873.08 
v -536.488 4018.56 -2873.08 
v -534.693 4007.55 -2871.95 
v -534.985 4007.61 -2871.09 
v -535.072 4007.22 -2871.09 
v -534.781 4007.16 -2871.95 
v -535.514 4007.32 -2872.87 
v -536.242 4007.89 -2872.76 
v -535.427 4007.71 -2872.87 
v -536.329 4007.5 -2872.76 
v -535.347 4011.14 -2872.31 
v -535.189 4007.92 -2872.39 
v -536.445 4007.92 -2872.39 
v -536.603 4011.14 -2872.31 
v -536.501 4017.69 -2872.12 
v -535.245 4017.69 -2872.12 
v -535.627 4016.27 -2868.73 
v -535.685 4015.64 -2868.58 
v -535.476 4016.47 -2869.34 
v -535.592 4015.02 -2869.06 
v -535.451 4015.06 -2869.65 
v -535.342 4015.56 -2870.04 
v -535.353 4016.19 -2869.9 
v -536.446 4007.94 -2866.71 
v -535.347 4011.14 -2872.31 
v -536.603 4011.14 -2866.7 
v -535.189 4007.92 -2872.39 
v -535.245 4017.69 -2872.12 
v -536.498 4017.89 -2866.67 
v -535.342 4015.56 -2870.04 
v -535.784 4015.58 -2870.14 
v -535.353 4016.19 -2869.9 
v -535.795 4016.2 -2870 
v -535.072 4007.22 -2871.09 
v -535.478 4007.72 -2870.82 
v -535.565 4007.33 -2870.82 
v -534.985 4007.61 -2871.09 
v -536.867 4007.61 -2872.03 
v -536.242 4007.89 -2872.76 
v -536.329 4007.5 -2872.76 
v -536.78 4008.01 -2872.03 
v -536.501 4017.69 -2872.12 
v -536.488 4018.56 -2866.04 
v -536.498 4017.89 -2866.67 
v -536.488 4018.56 -2873.08 
v -536.603 4011.14 -2866.18 
v -536.603 4011.14 -2872.95 
v -536.603 4011.14 -2866.7 
v -536.603 4011.14 -2872.31 
v -536.446 4007.94 -2866.71 
v -536.445 4007.92 -2872.39 
v -536.408 4007.16 -2865.95 
v -536.408 4007.16 -2873.17 
v -536.117 4007.86 -2870.85 
v -535.565 4007.33 -2870.82 
v -535.478 4007.72 -2870.82 
v -536.204 4007.47 -2870.85 
v -536.788 4007.6 -2871.49 
v -536.701 4007.99 -2871.49 
v -536.867 4007.61 -2872.03 
v -536.78 4008.01 -2872.03 
v -536.788 4007.6 -2871.49 
v -536.204 4007.47 -2870.85 
v -536.117 4007.86 -2870.85 
v -536.701 4007.99 -2871.49 
v -535.685 4015.64 -2868.58 
v -536.034 4015.04 -2869.17 
v -535.592 4015.02 -2869.06 
v -536.127 4015.65 -2868.68 
v -535.451 4015.06 -2869.65 
v -535.784 4015.58 -2870.14 
v -535.342 4015.56 -2870.04 
v -535.893 4015.08 -2869.75 
v -536.242 4007.89 -2872.76 
v -535.478 4007.72 -2870.82 
v -534.985 4007.61 -2871.09 
v -536.117 4007.86 -2870.85 
v -534.693 4007.55 -2871.95 
v -536.701 4007.99 -2871.49 
v -536.78 4008.01 -2872.03 
v -534.883 4007.59 -2872.48 
v -535.427 4007.71 -2872.87 
v -535.592 4015.02 -2869.06 
v -535.893 4015.08 -2869.75 
v -535.451 4015.06 -2869.65 
v -536.034 4015.04 -2869.17 

vn 0 1 0 
vn 0 1 0 
vn 0 1 0 
vn 0 1 0 
vn 0 1 -0.0393701 
vn 0 1 -0.0393701 
vn 0 1 -0.0393701 
vn -1 0.0472441 0 
vn -1 0.0472441 0 
vn -1 0.015748 0 
vn -1 0.015748 0 
vn -1 -0.015748 0 
vn -1 -0.015748 0 
vn -0.0393701 0.952756 0.299213 
vn -0.0393701 0.952756 0.299213 
vn -0.0393701 0.952756 0.299213 
vn -0.0393701 0.952756 0.299213 
vn 0 0.023622 1 
vn 0 0.0551181 1 
vn 0 0.0551181 1 
vn 0 0.023622 1 
vn 0 -0.015748 1 
vn 0 -0.015748 1 
vn 0.133858 0.897638 -0.425197 
vn 0.133858 0.897638 -0.425197 
vn 0.133858 0.897638 -0.425197 
vn 0.133858 0.897638 -0.425197 
vn 0 -1 0 
vn 0 -1 0 
vn 0 -1 0 
vn 0 -1 0 
vn -0.259843 -0.96063 -0.11811 
vn -0.0472441 -1 0.023622 
vn -0.141732 -0.992126 0 
vn -0.393701 -0.913386 -0.0787402 
vn -0.251969 -0.968504 0.0472441 
vn -0.283465 -0.944882 0.15748 
vn -0.15748 -0.984252 -0.023622 
vn -0.377953 -0.92126 0.0314961 
vn -0.385827 -0.92126 -0.0866142 
vn 0 -1 0 
vn 0 -1 0 
vn 0 -1 0 
vn 0.440945 -0.015748 -0.897638 
vn 0.566929 0 -0.818898 
vn 0.566929 0 -0.818898 
vn 0.519685 -0.0866142 -0.850394 
vn 0.937008 0 -0.346457 
vn 0.937008 0 -0.346457 
vn 0.96063 -0.0551181 -0.259843 
vn 0.897638 -0.015748 -0.433071 
vn -0.212598 0.251969 0.944882 
vn -0.212598 0.251969 0.944882 
vn -0.212598 0.251969 0.944882 
vn -0.212598 0.251969 0.944882 
vn 0 0.023622 -1 
vn 0 0.0551181 -1 
vn 0 0.023622 -1 
vn 0 0.0551181 -1 
vn 0 -0.015748 -1 
vn 0 -0.015748 -1 
vn 0.944882 0 0.322835 
vn 0.944882 0 0.322835 
vn 0.850394 -0.212598 0.480315 
vn 0.874016 -0.0866142 0.480315 
vn -0.165354 -0.023622 -0.984252 
vn -0.133858 0 -0.992126 
vn -0.133858 0 -0.992126 
vn -0.244094 -0.015748 -0.968504 
vn 0 0.023622 -1 
vn 0 0.023622 -1 
vn 0 0.023622 -1 
vn 0 0.023622 -1 
vn 0 0.0314961 -1 
vn 0 0.0314961 -1 
vn 0.976378 -0.0314961 0.228346 
vn 0.976378 -0.0314961 0.228346 
vn 0.976378 -0.0314961 0.228346 
vn 0.976378 -0.0314961 0.228346 
vn 0.976378 -0.0314961 0.228346 
vn 0.976378 -0.0314961 0.228346 
vn 0.976378 -0.0314961 0.228346 
vn 0.976378 0.0472441 0.212598 
vn 0.976378 0.015748 0.220472 
vn 0.976378 0.015748 0.220472 
vn 0.976378 0.0472441 0.212598 
vn 0.976378 -0.015748 0.220472 
vn 0.976378 -0.015748 0.220472 
vn 0.228346 0.212598 -0.952756 
vn 0.228346 0.212598 -0.952756 
vn 0.228346 0.212598 -0.952756 
vn 0.228346 0.212598 -0.952756 
vn 0.433071 -0.267717 0.858268 
vn 0.472441 0 0.88189 
vn 0.433071 -0.0393701 0.897638 
vn 0.472441 0 0.88189 
vn -0.889764 0.0944882 -0.448819 
vn -0.80315 0 -0.598425 
vn -0.755906 0.0629921 -0.653543 
vn -0.80315 0 -0.598425 
vn 1 -0.015748 0 
vn 1 -0.015748 0 
vn 1 -0.015748 0 
vn 1 -0.015748 0 
vn 1 0.015748 0 
vn 1 0.015748 0 
vn 1 0.015748 0 
vn 1 0.015748 0 
vn 1 0.0472441 0 
vn 1 0.0472441 0 
vn 1 0.0472441 0 
vn 1 0.0472441 0 
vn -0.0551181 0 1 
vn -0.11811 -0.015748 0.992126 
vn -0.0551181 0 1 
vn -0.0866142 -0.0393701 0.992126 
vn -0.944882 0.125984 0.307087 
vn -0.992126 0 0.149606 
vn -1 0.0472441 0.0472441 
vn -0.992126 0 0.149606 
vn -0.787402 0.015748 0.614173 
vn -0.685039 0.125984 0.716535 
vn -0.732283 0 0.677165 
vn -0.732283 0 0.677165 
vn -0.19685 -0.622047 0.755906 
vn -0.19685 -0.622047 0.755906 
vn -0.19685 -0.622047 0.755906 
vn -0.19685 -0.622047 0.755906 
vn 0.15748 -0.629921 -0.76378 
vn 0.15748 -0.629921 -0.76378 
vn 0.15748 -0.629921 -0.76378 
vn 0.15748 -0.629921 -0.76378 
vn 0 1 0 
vn 0 1 0 
vn 0 1 0 
vn 0 1 0 
vn 0 1 0 
vn 0 1 0 
vn 0 1 0 
vn 0 1 0 
vn 0 1 0 
vn -0.015748 -1 -0.0787402 
vn -0.015748 -1 -0.0787402 
vn -0.015748 -1 -0.0787402 
vn -0.015748 -1 -0.0787402 

vt 0.469989 0.705212 
vt 0.709675 0.705705 
vt 0.469736 0.983366 
vt 0.709227 0.983941 
vt 0.983726 0.770757 
vt 0.982355 0.98733 
vt 0.933886 0.770471 
vt 0.0177732 0.474365 
vt 0.0142592 0.198632 
vt 0.172441 0.20632 
vt 0.174626 0.475056 
vt 0.466878 0.198632 
vt 0.468327 0.47215 
vt 0.262588 0.164747 
vt 0.216739 0.164726 
vt 0.216738 0.131369 
vt 0.262588 0.131374 
vt 0.172833 0.706358 
vt 0.0177732 0.474365 
vt 0.0124663 0.705638 
vt 0.174633 0.475094 
vt 0.469989 0.705212 
vt 0.468327 0.47215 
vt 0.174389 0.164748 
vt 0.216738 0.131369 
vt 0.216739 0.164726 
vt 0.174389 0.131375 
vt 0.757476 0.84844 
vt 0.757476 0.707082 
vt 0.879252 0.707082 
vt 0.879252 0.84844 
vt 0.802944 0.0808298 
vt 0.598578 0.31549 
vt 0.674632 0.350431 
vt 0.575426 0.183836 
vt 0.762772 0.345598 
vt 0.605575 0.116481 
vt 0.68257 0.0687078 
vt 0.846564 0.264838 
vt 0.863162 0.198242 
vt 0.985061 0.157412 
vt 0.983726 0.38285 
vt 0.933886 0.382563 
vt 0.564569 0.0788488 
vt 0.68257 0.0687078 
vt 0.605575 0.116481 
vt 0.665484 0.0167308 
vt 0.605575 0.116481 
vt 0.575426 0.183836 
vt 0.564569 0.0788488 
vt 0.520567 0.170566 
vt 0.262588 0.164747 
vt 0.262588 0.131374 
vt 0.309008 0.164752 
vt 0.309008 0.131379 
vt 0.172833 0.706358 
vt 0.0124662 0.705638 
vt 0.174626 0.475056 
vt 0.0177732 0.474365 
vt 0.468327 0.47215 
vt 0.469989 0.705212 
vt 0.575426 0.183836 
vt 0.598578 0.31549 
vt 0.534285 0.31835 
vt 0.520567 0.170566 
vt 0.665484 0.0167308 
vt 0.802944 0.0808298 
vt 0.68257 0.0687078 
vt 0.801287 0.0166408 
vt 0.939408 0.510506 
vt 0.933886 0.382563 
vt 0.983726 0.38285 
vt 0.989248 0.510792 
vt 0.983726 0.770757 
vt 0.933886 0.770471 
vt 0.269353 0.896883 
vt 0.217604 0.910016 
vt 0.286063 0.845771 
vt 0.16742 0.869144 
vt 0.171265 0.819565 
vt 0.21224 0.786888 
vt 0.263336 0.798551 
vt 0.890145 0.443167 
vt 0.764539 0.67021 
vt 0.762952 0.44209 
vt 0.892544 0.674047 
vt 0.504552 0.66586 
vt 0.494834 0.443863 
vt 0.128604 0.164759 
vt 0.128604 0.131386 
vt 0.174389 0.164748 
vt 0.174389 0.131375 
vt 0.57873 0.381002 
vt 0.674632 0.350431 
vt 0.673798 0.409224 
vt 0.598578 0.31549 
vt 0.917481 0.196985 
vt 0.802944 0.0808298 
vt 0.864227 0.0551168 
vt 0.863162 0.198242 
vt 0.434849 0.742814 
vt 0.469736 0.983366 
vt 0.443096 0.958889 
vt 0.469989 0.705212 
vt 0.172382 0.98241 
vt 0.172833 0.706358 
vt 0.172524 0.961439 
vt 0.172715 0.732259 
vt 0.04387 0.956664 
vt 0.0433929 0.7354 
vt 0.0125285 0.98517 
vt 0.0124662 0.705638 
vt 0.762772 0.345598 
vt 0.673798 0.409224 
vt 0.674632 0.350431 
vt 0.789972 0.393863 
vt 0.895737 0.292773 
vt 0.846564 0.264838 
vt 0.917481 0.196985 
vt 0.863162 0.198242 
vt 0.895737 0.292773 
vt 0.789972 0.393863 
vt 0.762772 0.345598 
vt 0.846564 0.264838 
vt 0.0182461 0.164764 
vt 0.054893 0.13139 
vt 0.0548921 0.164764 
vt 0.0182471 0.131391 
vt 0.099345 0.164764 
vt 0.128604 0.131386 
vt 0.128604 0.164759 
vt 0.0993451 0.13139 
vt 0.802944 0.0808298 
vt 0.674632 0.350431 
vt 0.598578 0.31549 
vt 0.762772 0.345598 
vt 0.575426 0.183836 
vt 0.846564 0.264838 
vt 0.863162 0.198242 
vt 0.605575 0.116481 
vt 0.68257 0.0687078 
vt 0.0548921 0.164764 
vt 0.0993451 0.13139 
vt 0.099345 0.164764 
vt 0.054893 0.13139 

usemtl VaultMagma1Mtl

f 1/1/1 2/2/2 3/3/3 
f 3/3/3 2/2/2 4/4/4 
f 5/5/5 6/6/6 7/7/7 
f 8/8/8 9/9/9 10/10/10 
f 8/8/8 10/10/10 11/11/11 
f 11/11/11 10/10/10 12/12/12 
f 11/11/11 12/12/12 13/13/13 
f 14/14/14 15/15/15 16/16/16 
f 14/14/14 16/16/16 17/17/17 
f 18/18/18 19/19/19 20/20/20 
f 19/19/19 18/18/18 21/21/21 
f 22/22/22 21/21/21 18/18/18 
f 21/21/21 22/22/22 23/23/23 
f 24/24/24 25/25/25 26/26/26 
f 25/25/25 24/24/24 27/27/27 
f 28/28/28 29/29/29 30/30/30 
f 28/28/28 30/30/30 31/31/31 
f 32/32/32 33/33/33 34/34/34 
f 35/35/35 33/33/33 32/32/32 
f 32/32/32 34/34/34 36/36/36 
f 37/37/37 35/35/35 32/32/32 
f 38/38/38 37/37/37 32/32/32 
f 32/32/32 36/36/36 39/39/39 
f 40/40/40 32/32/32 39/39/39 
f 41/41/41 42/42/42 43/43/43 
f 44/44/44 45/45/45 46/46/46 
f 45/45/45 44/44/44 47/47/47 
f 48/48/48 49/49/49 50/50/50 
f 49/49/49 51/51/51 50/50/50 
f 52/52/52 53/53/53 54/54/54 
f 54/54/54 53/53/53 55/55/55 
f 56/56/56 57/57/57 58/58/58 
f 57/57/57 59/59/59 58/58/58 
f 56/56/56 58/58/58 60/60/60 
f 61/61/61 56/56/56 60/60/60 
f 62/62/62 63/63/63 64/64/64 
f 62/62/62 64/64/64 65/65/65 
f 66/66/66 67/67/67 68/68/68 
f 67/67/67 66/66/66 69/69/69 
f 70/70/70 71/71/71 72/72/72 
f 70/70/70 72/72/72 73/73/73 
f 74/74/74 70/70/70 73/73/73 
f 70/70/70 74/74/74 75/75/75 
f 76/76/76 77/77/77 78/78/78 
f 77/77/77 79/79/79 78/78/78 
f 79/79/79 80/80/80 78/78/78 
f 80/80/80 81/81/81 78/78/78 
f 81/81/81 82/82/82 78/78/78 
f 83/83/83 84/84/84 85/85/85 
f 84/84/84 83/83/83 86/86/86 
f 87/87/87 85/85/85 84/84/84 
f 85/85/85 87/87/87 88/88/88 
f 89/89/89 90/90/90 91/91/91 
f 91/91/91 90/90/90 92/92/92 
f 93/93/93 94/94/94 95/95/95 
f 94/94/94 93/93/93 96/96/96 
f 97/97/97 98/98/98 99/99/99 
f 98/98/98 97/97/97 100/100/100 
f 101/101/101 102/102/102 103/103/103 
f 104/104/104 102/102/102 101/101/101 
f 105/105/105 103/103/103 102/102/102 
f 101/101/101 106/106/106 104/104/104 
f 103/103/103 105/105/105 107/107/107 
f 106/106/106 101/101/101 108/108/108 
f 105/105/105 109/109/109 107/107/107 
f 110/110/110 106/106/106 108/108/108 
f 109/109/109 105/105/105 111/111/111 
f 111/111/111 110/110/110 109/109/109 
f 106/106/106 110/110/110 112/112/112 
f 110/110/110 111/111/111 112/112/112 
f 113/113/113 114/114/114 115/115/115 
f 114/114/114 113/113/113 116/116/116 
f 117/117/117 118/118/118 119/119/119 
f 119/119/119 118/118/118 120/120/120 
f 121/121/121 122/122/122 123/123/123 
f 121/121/121 123/123/123 124/124/124 
f 125/125/125 126/126/126 127/127/127 
f 126/126/126 125/125/125 128/128/128 
f 129/129/129 130/130/130 131/131/131 
f 130/130/130 129/129/129 132/132/132 
f 133/133/133 134/134/134 135/135/135 
f 133/133/133 136/136/136 134/134/134 
f 137/137/137 133/133/133 135/135/135 
f 133/133/133 138/138/138 136/136/136 
f 133/133/133 139/139/139 138/138/138 
f 133/133/133 137/137/137 140/140/140 
f 133/133/133 140/140/140 141/141/141 
f 142/142/142 143/143/143 144/144/144 
f 143/143/143 142/142/142 145/145/145 

