# This file is brought to you by Roblox Corporation
# Generated by Roblox Studio

mtllib SacoDeDiamante.mtl

g DiamondBagTier11

v 241.498 97.7768 148.967 
v 240.729 97.7768 148.967 
v 240.344 97.7768 148.301 
v 241.883 97.7768 148.301 
v 241.498 97.7768 147.635 
v 240.729 97.7768 147.635 
v 240.404 100.493 148.856 
v 240.894 100.906 148.856 
v 240.16 100.286 148.301 
v 240.894 100.906 148.856 
v 241.139 101.112 148.301 
v 240.16 100.286 148.301 
v 241.139 101.112 148.301 
v 240.894 100.906 147.746 
v 240.16 100.286 148.301 
v 240.894 100.906 147.746 
v 240.404 100.493 147.746 
v 240.16 100.286 148.301 
v 240.372 98.8398 146.9 
v 241.866 98.8398 146.9 
v 241.458 98.1347 147.08 
v 240.765 98.1182 147.084 
v 240.686 99.4345 147.09 
v 241.515 99.5245 147.109 
v 241.797 99.5922 147.15 
v 242.139 99.2572 147.543 
v 241.947 99.2895 147.229 
v 242.153 99.5922 147.767 
v 241.687 99.7724 147.473 
v 241.808 99.7957 147.749 
v 240.431 99.5922 147.15 
v 240.089 99.2572 147.543 
v 240.074 99.5922 147.767 
v 240.281 99.2895 147.229 
v 240.541 99.7724 147.473 
v 240.42 99.7957 147.749 
v 240.169 99.6436 148.911 
v 240.622 100.117 148.287 
v 239.932 99.6541 148.41 
v 240.709 100.114 148.471 
v 240.746 99.8267 147.461 
v 241.271 100.038 147.763 
v 241.513 99.8516 147.496 
v 240.971 100.036 147.759 
v 241.261 99.6276 147.177 
v 240.962 99.6276 147.177 
v 240.707 100.113 148.153 
v 240.249 99.7005 147.77 
v 240.629 100.12 148.31 
v 240.033 99.7194 148.198 
v 241.802 98.1126 149.492 
v 241.883 97.7768 148.301 
v 242.489 98.1126 148.301 
v 241.498 97.7768 148.967 
v 241.802 98.1126 147.11 
v 242.702 98.8363 148.301 
v 241.908 98.8363 149.677 
v 241.498 97.7768 147.635 
v 241.78 99.5794 149.455 
v 240.426 98.1126 147.11 
v 240.729 97.7768 147.635 
v 240.32 98.8363 146.926 
v 241.908 98.8363 146.926 
v 240.447 99.5794 147.147 
v 242.446 99.5794 148.301 
v 241.358 100.093 148.723 
v 241.601 100.093 148.301 
v 241.358 100.093 147.879 
v 241.78 99.5794 147.147 
v 240.87 100.093 147.879 
v 240.729 97.7768 148.967 
v 241.498 97.7768 148.967 
v 241.802 98.1126 149.492 
v 240.426 98.1126 149.492 
v 241.908 98.8363 149.677 
v 240.344 97.7768 148.301 
v 240.32 98.8363 149.677 
v 239.738 98.1126 148.301 
v 240.426 98.1126 147.11 
v 240.729 97.7768 147.635 
v 239.525 98.8363 148.301 
v 240.32 98.8363 146.926 
v 240.447 99.5794 147.147 
v 240.447 99.5794 149.455 
v 241.78 99.5794 149.455 
v 241.358 100.093 148.723 
v 240.87 100.093 148.723 
v 239.781 99.5794 148.301 
v 240.87 100.093 147.879 
v 240.626 100.093 148.301 
v 240.87 100.093 148.723 
v 241.358 100.093 148.723 
v 241.253 100.276 148.753 
v 240.765 100.183 148.753 
v 241.497 100.323 148.301 
v 240.626 100.093 148.301 
v 241.601 100.093 148.301 
v 240.521 100.136 148.301 
v 241.358 100.093 147.879 
v 240.765 100.183 147.849 
v 241.253 100.276 147.849 
v 240.87 100.093 147.879 
v 241.497 100.323 148.301 
v 240.894 100.906 148.856 
v 241.253 100.276 148.753 
v 240.765 100.183 148.753 
v 241.139 101.112 148.301 
v 240.404 100.493 148.856 
v 240.521 100.136 148.301 
v 240.16 100.286 148.301 
v 240.894 100.906 147.746 
v 241.253 100.276 147.849 
v 240.765 100.183 147.849 
v 240.404 100.493 147.746 
v 240.521 100.136 148.301 
v 240.16 100.286 148.301 

vn 0 -1 0 
vn 0 -1 0 
vn 0 -1 0 
vn 0 -1 0 
vn 0 -1 0 
vn 0 -1 0 
vn -0.645669 0.76378 0 
vn -0.645669 0.76378 0 
vn -0.645669 0.76378 0 
vn -0.645669 0.76378 0 
vn -0.645669 0.76378 0 
vn -0.645669 0.76378 0 
vn -0.645669 0.76378 0 
vn -0.645669 0.76378 0 
vn -0.645669 0.76378 0 
vn -0.645669 0.76378 0 
vn -0.645669 0.76378 0 
vn -0.645669 0.76378 0 
vn 0 0.023622 -1 
vn 0 0.023622 -1 
vn 0 -0.244094 -0.968504 
vn 0 -0.244094 -0.968504 
vn 0 0.299213 -0.952756 
vn 0 0.299213 -0.952756 
vn 0.700787 0.582677 -0.409449 
vn 0.826772 0.283465 -0.480315 
vn 0.826772 0.283465 -0.480315 
vn 0.700787 0.582677 -0.409449 
vn 0.496063 0.818898 -0.291339 
vn 0.496063 0.818898 -0.291339 
vn -0.700787 0.582677 -0.409449 
vn -0.826772 0.283465 -0.480315 
vn -0.700787 0.582677 -0.409449 
vn -0.826772 0.283465 -0.480315 
vn -0.496063 0.818898 -0.291339 
vn -0.496063 0.818898 -0.291339 
vn -0.771654 0.637795 0 
vn -0.259843 0.858268 -0.448819 
vn -0.385827 0.637795 -0.669291 
vn -0.519685 0.858268 0 
vn 0 0.818898 -0.574803 
vn 0 0.818898 -0.574803 
vn 0 0.818898 -0.574803 
vn 0 0.818898 -0.574803 
vn 0 0.818898 -0.574803 
vn 0 0.818898 -0.574803 
vn -0.259843 0.858268 -0.448819 
vn -0.385827 0.637795 -0.669291 
vn -0.519685 0.858268 0 
vn -0.771654 0.637795 0 
vn 0.385827 -0.637795 0.661417 
vn 0.488189 -0.874016 0 
vn 0.771654 -0.637795 0 
vn 0.244094 -0.874016 0.417323 
vn 0.385827 -0.637795 -0.661417 
vn 1 0.023622 0 
vn 0.496063 0.023622 0.866142 
vn 0.244094 -0.874016 -0.417323 
vn 0.385827 0.637795 0.669291 
vn -0.385827 -0.637795 -0.661417 
vn -0.244094 -0.874016 -0.417323 
vn -0.496063 0.023622 -0.866142 
vn 0.496063 0.023622 -0.866142 
vn -0.385827 0.637795 -0.669291 
vn 0.771654 0.637795 0 
vn 0.259843 0.858268 0.448819 
vn 0.519685 0.858268 0 
vn 0.259843 0.858268 -0.448819 
vn 0.385827 0.637795 -0.669291 
vn -0.259843 0.858268 -0.448819 
vn -0.244094 -0.874016 0.417323 
vn 0.244094 -0.874016 0.417323 
vn 0.385827 -0.637795 0.661417 
vn -0.385827 -0.637795 0.661417 
vn 0.496063 0.023622 0.866142 
vn -0.488189 -0.874016 0 
vn -0.496063 0.023622 0.866142 
vn -0.771654 -0.637795 0 
vn -0.385827 -0.637795 -0.661417 
vn -0.244094 -0.874016 -0.417323 
vn -1 0.023622 0 
vn -0.496063 0.023622 -0.866142 
vn -0.385827 0.637795 -0.669291 
vn -0.385827 0.637795 0.669291 
vn 0.385827 0.637795 0.669291 
vn 0.259843 0.858268 0.448819 
vn -0.259843 0.858268 0.448819 
vn -0.771654 0.637795 0 
vn -0.259843 0.858268 -0.448819 
vn -0.519685 0.858268 0 
vn -0.23622 -0.566929 0.787402 
vn 0.488189 0.102362 0.866142 
vn 0.503937 0.11811 0.858268 
vn -0.23622 -0.566929 0.787402 
vn 0.905512 0.417323 0 
vn -0.496063 -0.866142 0 
vn 0.905512 0.417323 0 
vn -0.496063 -0.866142 0 
vn 0.488189 0.102362 -0.866142 
vn -0.23622 -0.566929 -0.787402 
vn 0.503937 0.11811 -0.858268 
vn -0.23622 -0.566929 -0.787402 
vn 0.905512 0.417323 0 
vn 0.511811 0.125984 0.850394 
vn 0.503937 0.11811 0.858268 
vn -0.23622 -0.566929 0.787402 
vn 0.905512 0.417323 0 
vn -0.212598 -0.543307 0.811024 
vn -0.496063 -0.866142 0 
vn -0.488189 -0.874016 0 
vn 0.511811 0.125984 -0.850394 
vn 0.503937 0.11811 -0.858268 
vn -0.23622 -0.566929 -0.787402 
vn -0.212598 -0.543307 -0.811024 
vn -0.496063 -0.866142 0 
vn -0.488189 -0.874016 0 

vt 0.76246 0.0810146 
vt 0.813498 0.0801113 
vt 0.8398 0.12386 
vt 0.737723 0.125667 
vt 0.764024 0.169416 
vt 0.815063 0.168513 
vt 0.412624 0.0909512 
vt 0.383863 0.192767 
vt 0.32284 0.0152284 
vt 0.383863 0.192767 
vt 0.318587 0.221555 
vt 0.32284 0.0152284 
vt 0.318587 0.221555 
vt 0.254575 0.189045 
vt 0.32284 0.0152284 
vt 0.254575 0.189045 
vt 0.234158 0.0858147 
vt 0.32284 0.0152284 
vt 0.934766 0.368485 
vt 0.705283 0.362198 
vt 0.771032 0.252125 
vt 0.877574 0.252438 
vt 0.883933 0.46307 
vt 0.756095 0.473662 
vt 0.88588 0.54227 
vt 0.959791 0.547898 
vt 0.919663 0.566413 
vt 0.959791 0.499594 
vt 0.89043 0.496256 
vt 0.919035 0.474137 
vt 0.956693 0.539395 
vt 0.882782 0.545022 
vt 0.882782 0.496719 
vt 0.92291 0.563538 
vt 0.952142 0.493382 
vt 0.923537 0.471262 
vt 0.846073 0.828884 
vt 0.739936 0.77952 
vt 0.846326 0.757156 
vt 0.739843 0.805768 
vt 0.965585 0.498044 
vt 0.936611 0.569228 
vt 0.891197 0.552163 
vt 0.966492 0.54931 
vt 0.891197 0.496617 
vt 0.921338 0.477186 
vt 0.741616 0.781327 
vt 0.833538 0.762004 
vt 0.741536 0.804005 
vt 0.83332 0.823978 
vt 0.0340547 0.473127 
vt 0.222213 0.369372 
vt 0.222213 0.473127 
vt 0.0942252 0.369372 
vt 0.415576 0.473127 
vt 0.222213 0.61865 
vt 0.0340547 0.61865 
vt 0.415576 0.369372 
vt 0.0340547 0.758138 
vt 0.592856 0.473126 
vt 0.592856 0.369372 
vt 0.592856 0.61865 
vt 0.415576 0.61865 
vt 0.592856 0.758138 
vt 0.222213 0.758138 
vt 0.243321 0.986361 
vt 0.329669 0.986361 
vt 0.456129 0.986361 
vt 0.415576 0.758138 
vt 0.592856 0.986361 
vt 0.222212 0.369372 
vt 0.0942253 0.369372 
vt 0.0340548 0.473127 
vt 0.222212 0.473127 
vt 0.0340548 0.61865 
vt 0.415576 0.369372 
vt 0.222212 0.61865 
vt 0.415576 0.473127 
vt 0.591951 0.473126 
vt 0.591951 0.369372 
vt 0.415576 0.61865 
vt 0.591951 0.61865 
vt 0.591951 0.758138 
vt 0.222212 0.758138 
vt 0.0340548 0.758138 
vt 0.243321 0.986361 
vt 0.329669 0.986361 
vt 0.415576 0.758138 
vt 0.591951 0.986361 
vt 0.456129 0.986361 
vt 0.771773 0.696564 
vt 0.707703 0.767983 
vt 0.675646 0.741704 
vt 0.777662 0.665065 
vt 0.688634 0.893457 
vt 0.88547 0.72238 
vt 0.727421 0.859518 
vt 0.905244 0.705327 
vt 0.815201 0.891658 
vt 0.926812 0.837257 
vt 0.836875 0.927084 
vt 0.894824 0.838564 
vt 0.3163 0.332391 
vt 0.383863 0.192767 
vt 0.4147 0.298788 
vt 0.46214 0.19363 
vt 0.318587 0.221555 
vt 0.412624 0.0909512 
vt 0.515393 0.121225 
vt 0.494098 0.0535488 
vt 0.254575 0.189045 
vt 0.219404 0.293163 
vt 0.176356 0.185404 
vt 0.234158 0.0858147 
vt 0.12615 0.110022 
vt 0.150206 0.0436521 

usemtl DiamondBagTier11Mtl

f 1/1/1 2/2/2 3/3/3 
f 4/4/4 1/1/1 3/3/3 
f 5/5/5 4/4/4 3/3/3 
f 6/6/6 5/5/5 3/3/3 
f 7/7/7 8/8/8 9/9/9 
f 10/10/10 11/11/11 12/12/12 
f 13/13/13 14/14/14 15/15/15 
f 16/16/16 17/17/17 18/18/18 
f 19/19/19 20/20/20 21/21/21 
f 19/19/19 21/21/21 22/22/22 
f 20/20/20 19/19/19 23/23/23 
f 20/20/20 23/23/23 24/24/24 
f 25/25/25 26/26/26 27/27/27 
f 26/26/26 25/25/25 28/28/28 
f 29/29/29 28/28/28 25/25/25 
f 28/28/28 29/29/29 30/30/30 
f 31/31/31 32/32/32 33/33/33 
f 32/32/32 31/31/31 34/34/34 
f 33/33/33 35/35/35 31/31/31 
f 35/35/35 33/33/33 36/36/36 
f 37/37/37 38/38/38 39/39/39 
f 38/38/38 37/37/37 40/40/40 
f 41/41/41 42/42/42 43/43/43 
f 42/42/42 41/41/41 44/44/44 
f 45/45/45 41/41/41 43/43/43 
f 45/45/45 46/46/46 41/41/41 
f 47/47/47 48/48/48 49/49/49 
f 48/48/48 50/50/50 49/49/49 
f 51/51/51 52/52/52 53/53/53 
f 52/52/52 51/51/51 54/54/54 
f 52/52/52 55/55/55 53/53/53 
f 56/56/56 51/51/51 53/53/53 
f 55/55/55 56/56/56 53/53/53 
f 51/51/51 56/56/56 57/57/57 
f 55/55/55 52/52/52 58/58/58 
f 56/56/56 59/59/59 57/57/57 
f 60/60/60 55/55/55 58/58/58 
f 60/60/60 58/58/58 61/61/61 
f 62/62/62 55/55/55 60/60/60 
f 62/62/62 63/63/63 55/55/55 
f 56/56/56 55/55/55 63/63/63 
f 64/64/64 63/63/63 62/62/62 
f 59/59/59 56/56/56 65/65/65 
f 65/65/65 66/66/66 59/59/59 
f 66/66/66 65/65/65 67/67/67 
f 65/65/65 68/68/68 67/67/67 
f 64/64/64 69/69/69 63/63/63 
f 69/69/69 56/56/56 63/63/63 
f 56/56/56 69/69/69 65/65/65 
f 65/65/65 69/69/69 68/68/68 
f 64/64/64 70/70/70 69/69/69 
f 69/69/69 70/70/70 68/68/68 
f 71/71/71 72/72/72 73/73/73 
f 71/71/71 73/73/73 74/74/74 
f 75/75/75 74/74/74 73/73/73 
f 74/74/74 76/76/76 71/71/71 
f 74/74/74 75/75/75 77/77/77 
f 74/74/74 78/78/78 76/76/76 
f 79/79/79 76/76/76 78/78/78 
f 76/76/76 79/79/79 80/80/80 
f 74/74/74 81/81/81 78/78/78 
f 79/79/79 78/78/78 81/81/81 
f 81/81/81 74/74/74 77/77/77 
f 81/81/81 82/82/82 79/79/79 
f 81/81/81 83/83/83 82/82/82 
f 75/75/75 84/84/84 77/77/77 
f 81/81/81 77/77/77 84/84/84 
f 84/84/84 75/75/75 85/85/85 
f 84/84/84 85/85/85 86/86/86 
f 84/84/84 86/86/86 87/87/87 
f 88/88/88 81/81/81 84/84/84 
f 83/83/83 81/81/81 88/88/88 
f 87/87/87 88/88/88 84/84/84 
f 88/88/88 89/89/89 83/83/83 
f 88/88/88 87/87/87 90/90/90 
f 89/89/89 88/88/88 90/90/90 
f 91/91/91 92/92/92 93/93/93 
f 91/91/91 93/93/93 94/94/94 
f 92/92/92 95/95/95 93/93/93 
f 96/96/96 91/91/91 94/94/94 
f 95/95/95 92/92/92 97/97/97 
f 94/94/94 98/98/98 96/96/96 
f 99/99/99 95/95/95 97/97/97 
f 100/100/100 96/96/96 98/98/98 
f 95/95/95 99/99/99 101/101/101 
f 96/96/96 100/100/100 102/102/102 
f 102/102/102 101/101/101 99/99/99 
f 101/101/101 102/102/102 100/100/100 
f 103/103/103 104/104/104 105/105/105 
f 104/104/104 106/106/106 105/105/105 
f 104/104/104 103/103/103 107/107/107 
f 106/106/106 104/104/104 108/108/108 
f 109/109/109 106/106/106 108/108/108 
f 108/108/108 110/110/110 109/109/109 
f 103/103/103 111/111/111 107/107/107 
f 111/111/111 103/103/103 112/112/112 
f 113/113/113 111/111/111 112/112/112 
f 111/111/111 113/113/113 114/114/114 
f 115/115/115 114/114/114 113/113/113 
f 114/114/114 115/115/115 116/116/116 

